# xmcd
#
# Track frame offsets: 
#        150
#        27508
#        52735
#        84542
#        104853
#        132170
#        161673
#        190890
#        218797
#        246705
#        260824
#        288239
#        309703
#        333340
#
# Disc length: 4680 seconds
#
# Revision: 0
# Processed by: cddbd v1.5.2PL0 Copyright (c) Steve Scherf et al.
# Submitted via: ExactAudioCopy v1.2
#
DISCID=d812460e
DTITLE=Magic Slim and The Teardrops - I’m Gonna Play The Blues
DYEAR=2019
DGENRE=Blues
TTITLE0=Come On In This House
TTITLE1=I’m Gonna Play The Blues
TTITLE2=Please Don’t Dog Me
TTITLE3=4:59 A.M.
TTITLE4=It Hurts Me Too
TTITLE5=Think
TTITLE6=Love Somebody
TTITLE7=She’s Tough
TTITLE8=The Things That I Used To Do
TTITLE9=Playin’ With My Mind
TTITLE10=That Will Never Do
TTITLE11=Bad Boy
TTITLE12=Older Woman
TTITLE13=Rough Dried Woman
EXTD=
EXTT0=
EXTT1=
EXTT2=
EXTT3=
EXTT4=
EXTT5=
EXTT6=
EXTT7=
EXTT8=
EXTT9=
EXTT10=
EXTT11=
EXTT12=
EXTT13=
PLAYORDER=
